<svg id="visual" viewBox="0 0 900 600" width="900" height="600" xmlns="http://www.w3.org/2000/svg" xmlns:xlink="http://www.w3.org/1999/xlink" version="1.1"><path d="M0 13L13.7 14C27.3 15 54.7 17 82 19C109.3 21 136.7 23 163.8 25C191 27 218 29 245.2 30C272.3 31 299.7 31 327 29C354.3 27 381.7 23 409 22C436.3 21 463.7 23 491 25C518.3 27 545.7 29 573 29C600.3 29 627.7 27 654.8 27C682 27 709 29 736.2 27C763.3 25 790.7 19 818 16C845.3 13 872.7 13 886.3 13L900 13L900 0L886.3 0C872.7 0 845.3 0 818 0C790.7 0 763.3 0 736.2 0C709 0 682 0 654.8 0C627.7 0 600.3 0 573 0C545.7 0 518.3 0 491 0C463.7 0 436.3 0 409 0C381.7 0 354.3 0 327 0C299.7 0 272.3 0 245.2 0C218 0 191 0 163.8 0C136.7 0 109.3 0 82 0C54.7 0 27.3 0 13.7 0L0 0Z" fill="#113199"></path><path d="M0 139L13.7 136C27.3 133 54.7 127 82 125C109.3 123 136.7 125 163.8 135C191 145 218 163 245.2 166C272.3 169 299.7 157 327 154C354.3 151 381.7 157 409 160C436.3 163 463.7 163 491 153C518.3 143 545.7 123 573 122C600.3 121 627.7 139 654.8 149C682 159 709 161 736.2 154C763.3 147 790.7 131 818 128C845.3 125 872.7 135 886.3 140L900 145L900 11L886.3 11C872.7 11 845.3 11 818 14C790.7 17 763.3 23 736.2 25C709 27 682 25 654.8 25C627.7 25 600.3 27 573 27C545.7 27 518.3 25 491 23C463.7 21 436.3 19 409 20C381.7 21 354.3 25 327 27C299.7 29 272.3 29 245.2 28C218 27 191 25 163.8 23C136.7 21 109.3 19 82 17C54.7 15 27.3 13 13.7 12L0 11Z" fill="#2142aa"></path><path d="M0 193L13.7 186C27.3 179 54.7 165 82 162C109.3 159 136.7 167 163.8 179C191 191 218 207 245.2 210C272.3 213 299.7 203 327 202C354.3 201 381.7 209 409 213C436.3 217 463.7 217 491 207C518.3 197 545.7 177 573 174C600.3 171 627.7 185 654.8 196C682 207 709 215 736.2 210C763.3 205 790.7 187 818 180C845.3 173 872.7 177 886.3 179L900 181L900 143L886.3 138C872.7 133 845.3 123 818 126C790.7 129 763.3 145 736.2 152C709 159 682 157 654.8 147C627.7 137 600.3 119 573 120C545.7 121 518.3 141 491 151C463.7 161 436.3 161 409 158C381.7 155 354.3 149 327 152C299.7 155 272.3 167 245.2 164C218 161 191 143 163.8 133C136.7 123 109.3 121 82 123C54.7 125 27.3 131 13.7 134L0 137Z" fill="#2f53bc"></path><path d="M0 217L13.7 210C27.3 203 54.7 189 82 187C109.3 185 136.7 195 163.8 207C191 219 218 233 245.2 236C272.3 239 299.7 231 327 232C354.3 233 381.7 243 409 247C436.3 251 463.7 249 491 237C518.3 225 545.7 203 573 200C600.3 197 627.7 213 654.8 225C682 237 709 245 736.2 239C763.3 233 790.7 213 818 207C845.3 201 872.7 209 886.3 213L900 217L900 179L886.3 177C872.7 175 845.3 171 818 178C790.7 185 763.3 203 736.2 208C709 213 682 205 654.8 194C627.7 183 600.3 169 573 172C545.7 175 518.3 195 491 205C463.7 215 436.3 215 409 211C381.7 207 354.3 199 327 200C299.7 201 272.3 211 245.2 208C218 205 191 189 163.8 177C136.7 165 109.3 157 82 160C54.7 163 27.3 177 13.7 184L0 191Z" fill="#3c64cd"></path><path d="M0 247L13.7 239C27.3 231 54.7 215 82 213C109.3 211 136.7 223 163.8 236C191 249 218 263 245.2 267C272.3 271 299.7 265 327 266C354.3 267 381.7 275 409 280C436.3 285 463.7 287 491 275C518.3 263 545.7 237 573 231C600.3 225 627.7 239 654.8 252C682 265 709 277 736.2 271C763.3 265 790.7 241 818 237C845.3 233 872.7 249 886.3 257L900 265L900 215L886.3 211C872.7 207 845.3 199 818 205C790.7 211 763.3 231 736.2 237C709 243 682 235 654.8 223C627.7 211 600.3 195 573 198C545.7 201 518.3 223 491 235C463.7 247 436.3 249 409 245C381.7 241 354.3 231 327 230C299.7 229 272.3 237 245.2 234C218 231 191 217 163.8 205C136.7 193 109.3 183 82 185C54.7 187 27.3 201 13.7 208L0 215Z" fill="#4975df"></path><path d="M0 271L13.7 263C27.3 255 54.7 239 82 238C109.3 237 136.7 251 163.8 262C191 273 218 281 245.2 283C272.3 285 299.7 281 327 282C354.3 283 381.7 289 409 296C436.3 303 463.7 311 491 300C518.3 289 545.7 259 573 253C600.3 247 627.7 265 654.8 280C682 295 709 307 736.2 299C763.3 291 790.7 263 818 258C845.3 253 872.7 271 886.3 280L900 289L900 263L886.3 255C872.7 247 845.3 231 818 235C790.7 239 763.3 263 736.2 269C709 275 682 263 654.8 250C627.7 237 600.3 223 573 229C545.7 235 518.3 261 491 273C463.7 285 436.3 283 409 278C381.7 273 354.3 265 327 264C299.7 263 272.3 269 245.2 265C218 261 191 247 163.8 234C136.7 221 109.3 209 82 211C54.7 213 27.3 229 13.7 237L0 245Z" fill="#4e7ce6"></path><path d="M0 331L13.7 322C27.3 313 54.7 295 82 296C109.3 297 136.7 317 163.8 328C191 339 218 341 245.2 339C272.3 337 299.7 331 327 329C354.3 327 381.7 329 409 334C436.3 339 463.7 347 491 337C518.3 327 545.7 299 573 299C600.3 299 627.7 327 654.8 346C682 365 709 375 736.2 363C763.3 351 790.7 317 818 312C845.3 307 872.7 331 886.3 343L900 355L900 287L886.3 278C872.7 269 845.3 251 818 256C790.7 261 763.3 289 736.2 297C709 305 682 293 654.8 278C627.7 263 600.3 245 573 251C545.7 257 518.3 287 491 298C463.7 309 436.3 301 409 294C381.7 287 354.3 281 327 280C299.7 279 272.3 283 245.2 281C218 279 191 271 163.8 260C136.7 249 109.3 235 82 236C54.7 237 27.3 253 13.7 261L0 269Z" fill="#4e7ce6"></path><path d="M0 361L13.7 352C27.3 343 54.7 325 82 327C109.3 329 136.7 351 163.8 360C191 369 218 365 245.2 361C272.3 357 299.7 353 327 354C354.3 355 381.7 361 409 368C436.3 375 463.7 383 491 371C518.3 359 545.7 327 573 325C600.3 323 627.7 351 654.8 370C682 389 709 399 736.2 387C763.3 375 790.7 341 818 337C845.3 333 872.7 359 886.3 372L900 385L900 353L886.3 341C872.7 329 845.3 305 818 310C790.7 315 763.3 349 736.2 361C709 373 682 363 654.8 344C627.7 325 600.3 297 573 297C545.7 297 518.3 325 491 335C463.7 345 436.3 337 409 332C381.7 327 354.3 325 327 327C299.7 329 272.3 335 245.2 337C218 339 191 337 163.8 326C136.7 315 109.3 295 82 294C54.7 293 27.3 311 13.7 320L0 329Z" fill="#4975df"></path><path d="M0 385L13.7 380C27.3 375 54.7 365 82 367C109.3 369 136.7 383 163.8 388C191 393 218 389 245.2 386C272.3 383 299.7 381 327 383C354.3 385 381.7 391 409 397C436.3 403 463.7 409 491 400C518.3 391 545.7 367 573 366C600.3 365 627.7 387 654.8 402C682 417 709 425 736.2 417C763.3 409 790.7 385 818 384C845.3 383 872.7 405 886.3 416L900 427L900 383L886.3 370C872.7 357 845.3 331 818 335C790.7 339 763.3 373 736.2 385C709 397 682 387 654.8 368C627.7 349 600.3 321 573 323C545.7 325 518.3 357 491 369C463.7 381 436.3 373 409 366C381.7 359 354.3 353 327 352C299.7 351 272.3 355 245.2 359C218 363 191 367 163.8 358C136.7 349 109.3 327 82 325C54.7 323 27.3 341 13.7 350L0 359Z" fill="#3c64cd"></path><path d="M0 481L13.7 473C27.3 465 54.7 449 82 445C109.3 441 136.7 449 163.8 457C191 465 218 473 245.2 470C272.3 467 299.7 453 327 452C354.3 451 381.7 463 409 470C436.3 477 463.7 479 491 473C518.3 467 545.7 453 573 451C600.3 449 627.7 459 654.8 465C682 471 709 473 736.2 463C763.3 453 790.7 431 818 434C845.3 437 872.7 465 886.3 479L900 493L900 425L886.3 414C872.7 403 845.3 381 818 382C790.7 383 763.3 407 736.2 415C709 423 682 415 654.8 400C627.7 385 600.3 363 573 364C545.7 365 518.3 389 491 398C463.7 407 436.3 401 409 395C381.7 389 354.3 383 327 381C299.7 379 272.3 381 245.2 384C218 387 191 391 163.8 386C136.7 381 109.3 367 82 365C54.7 363 27.3 373 13.7 378L0 383Z" fill="#2f53bc"></path><path d="M0 577L13.7 575C27.3 573 54.7 569 82 568C109.3 567 136.7 569 163.8 569C191 569 218 567 245.2 568C272.3 569 299.7 573 327 575C354.3 577 381.7 577 409 576C436.3 575 463.7 573 491 572C518.3 571 545.7 571 573 573C600.3 575 627.7 579 654.8 578C682 577 709 571 736.2 570C763.3 569 790.7 573 818 576C845.3 579 872.7 581 886.3 582L900 583L900 491L886.3 477C872.7 463 845.3 435 818 432C790.7 429 763.3 451 736.2 461C709 471 682 469 654.8 463C627.7 457 600.3 447 573 449C545.7 451 518.3 465 491 471C463.7 477 436.3 475 409 468C381.7 461 354.3 449 327 450C299.7 451 272.3 465 245.2 468C218 471 191 463 163.8 455C136.7 447 109.3 439 82 443C54.7 447 27.3 463 13.7 471L0 479Z" fill="#2142aa"></path><path d="M0 601L13.7 601C27.3 601 54.7 601 82 601C109.3 601 136.7 601 163.8 601C191 601 218 601 245.2 601C272.3 601 299.7 601 327 601C354.3 601 381.7 601 409 601C436.3 601 463.7 601 491 601C518.3 601 545.7 601 573 601C600.3 601 627.7 601 654.8 601C682 601 709 601 736.2 601C763.3 601 790.7 601 818 601C845.3 601 872.7 601 886.3 601L900 601L900 581L886.3 580C872.7 579 845.3 577 818 574C790.7 571 763.3 567 736.2 568C709 569 682 575 654.8 576C627.7 577 600.3 573 573 571C545.7 569 518.3 569 491 570C463.7 571 436.3 573 409 574C381.7 575 354.3 575 327 573C299.7 571 272.3 567 245.2 566C218 565 191 567 163.8 567C136.7 567 109.3 565 82 566C54.7 567 27.3 571 13.7 573L0 575Z" fill="#113199"></path></svg>