<svg id="visual" viewBox="0 0 900 600" width="900" height="600" xmlns="http://www.w3.org/2000/svg" xmlns:xlink="http://www.w3.org/1999/xlink" version="1.1"><path d="M0 31L64 37L129 25L193 43L257 31L321 43L386 43L450 37L514 25L579 37L643 25L707 37L771 25L836 43L900 43L900 0L836 0L771 0L707 0L643 0L579 0L514 0L450 0L386 0L321 0L257 0L193 0L129 0L64 0L0 0Z" fill="#00cc8e"></path><path d="M0 163L64 151L129 193L193 211L257 169L321 157L386 163L450 133L514 145L579 187L643 151L707 151L771 169L836 187L900 145L900 41L836 41L771 23L707 35L643 23L579 35L514 23L450 35L386 41L321 41L257 29L193 41L129 23L64 35L0 29Z" fill="#00c38c"></path><path d="M0 319L64 283L129 325L193 313L257 301L321 289L386 307L450 277L514 259L579 301L643 307L707 277L771 295L836 307L900 295L900 143L836 185L771 167L707 149L643 149L579 185L514 143L450 131L386 161L321 155L257 167L193 209L129 191L64 149L0 161Z" fill="#00b98a"></path><path d="M0 391L64 325L129 379L193 367L257 343L321 337L386 361L450 355L514 337L579 361L643 373L707 355L771 361L836 349L900 337L900 293L836 305L771 293L707 275L643 305L579 299L514 257L450 275L386 305L321 287L257 299L193 311L129 323L64 281L0 317Z" fill="#00b087"></path><path d="M0 421L64 349L129 409L193 391L257 373L321 373L386 391L450 385L514 373L579 391L643 409L707 385L771 391L836 379L900 379L900 335L836 347L771 359L707 353L643 371L579 359L514 335L450 353L386 359L321 335L257 341L193 365L129 377L64 323L0 389Z" fill="#00a784"></path><path d="M0 475L64 457L129 469L193 487L257 469L321 463L386 505L450 481L514 469L579 469L643 481L707 481L771 469L836 457L900 475L900 377L836 377L771 389L707 383L643 407L579 389L514 371L450 383L386 389L321 371L257 371L193 389L129 407L64 347L0 419Z" fill="#009e80"></path><path d="M0 523L64 499L129 505L193 517L257 505L321 505L386 535L450 511L514 511L579 505L643 523L707 523L771 511L836 505L900 511L900 473L836 455L771 467L707 479L643 479L579 467L514 467L450 479L386 503L321 461L257 467L193 485L129 467L64 455L0 473Z" fill="#00957c"></path><path d="M0 559L64 547L129 559L193 571L257 547L321 559L386 571L450 553L514 571L579 553L643 571L707 559L771 571L836 553L900 547L900 509L836 503L771 509L707 521L643 521L579 503L514 509L450 509L386 533L321 503L257 503L193 515L129 503L64 497L0 521Z" fill="#008c78"></path><path d="M0 601L64 601L129 601L193 601L257 601L321 601L386 601L450 601L514 601L579 601L643 601L707 601L771 601L836 601L900 601L900 545L836 551L771 569L707 557L643 569L579 551L514 569L450 551L386 569L321 557L257 545L193 569L129 557L64 545L0 557Z" fill="#038373"></path></svg>