<svg id="visual" viewBox="0 0 900 600" width="900" height="600" xmlns="http://www.w3.org/2000/svg" xmlns:xlink="http://www.w3.org/1999/xlink" version="1.1"><g stroke-width="1" stroke-linejoin="bevel"><path d="M439.3 293.9L472.7 309.1L465.7 271.9Z" fill="#0c2d45" stroke="#0c2d45"></path><path d="M439.3 293.9L443.3 332.1L472.7 309.1Z" fill="#0a75a6" stroke="#0a75a6"></path><path d="M521.1 313.1L507.1 292.9L472.7 309.1Z" fill="#0e3550" stroke="#0e3550"></path><path d="M472.7 309.1L507.1 292.9L465.7 271.9Z" fill="#071d2f" stroke="#071d2f"></path><path d="M507.1 292.9L473.7 234.8L465.7 271.9Z" fill="#11628d" stroke="#11628d"></path><path d="M465.7 271.9L428.3 208.8L439.3 293.9Z" fill="#09253a" stroke="#09253a"></path><path d="M443.3 332.1L453.7 353.2L472.7 309.1Z" fill="#125880" stroke="#125880"></path><path d="M373.9 279.9L398.9 308.1L439.3 293.9Z" fill="#103d5c" stroke="#103d5c"></path><path d="M439.3 293.9L398.9 308.1L443.3 332.1Z" fill="#0f6b99" stroke="#0f6b99"></path><path d="M443.3 332.1L417.3 356.2L453.7 353.2Z" fill="#071d2f" stroke="#071d2f"></path><path d="M503.1 365.2L521.1 313.1L472.7 309.1Z" fill="#0c2d45" stroke="#0c2d45"></path><path d="M507.1 292.9L523.1 225.8L473.7 234.8Z" fill="#11628d" stroke="#11628d"></path><path d="M398.9 308.1L417.3 356.2L443.3 332.1Z" fill="#0c2d45" stroke="#0c2d45"></path><path d="M454.7 401.4L503.1 365.2L453.7 353.2Z" fill="#114668" stroke="#114668"></path><path d="M453.7 353.2L503.1 365.2L472.7 309.1Z" fill="#0f6b99" stroke="#0f6b99"></path><path d="M428.3 208.8L373.9 279.9L439.3 293.9Z" fill="#0f6b99" stroke="#0f6b99"></path><path d="M398.9 308.1L370.9 356.2L417.3 356.2Z" fill="#114668" stroke="#114668"></path><path d="M473.7 234.8L428.3 208.8L465.7 271.9Z" fill="#09253a" stroke="#09253a"></path><path d="M567.4 290.9L523.1 225.8L507.1 292.9Z" fill="#0f6b99" stroke="#0f6b99"></path><path d="M473.7 234.8L472.7 166.6L428.3 208.8Z" fill="#09253a" stroke="#09253a"></path><path d="M472.7 166.6L411.3 204.6L428.3 208.8Z" fill="#11628d" stroke="#11628d"></path><path d="M428.3 208.8L411.3 204.6L373.9 279.9Z" fill="#114668" stroke="#114668"></path><path d="M523.1 225.8L516.1 203.6L473.7 234.8Z" fill="#11628d" stroke="#11628d"></path><path d="M565.4 329.1L567.4 290.9L521.1 313.1Z" fill="#0e3550" stroke="#0e3550"></path><path d="M521.1 313.1L567.4 290.9L507.1 292.9Z" fill="#071d2f" stroke="#071d2f"></path><path d="M523.1 225.8L552.4 208.8L516.1 203.6Z" fill="#09253a" stroke="#09253a"></path><path d="M417.3 356.2L454.7 401.4L453.7 353.2Z" fill="#071d2f" stroke="#071d2f"></path><path d="M373.9 279.9L370.9 356.2L398.9 308.1Z" fill="#09253a" stroke="#09253a"></path><path d="M417.3 356.2L411.3 420.4L454.7 401.4Z" fill="#071d2f" stroke="#071d2f"></path><path d="M547.4 370.2L521.1 313.1L503.1 365.2Z" fill="#0f6b99" stroke="#0f6b99"></path><path d="M547.4 370.2L565.4 329.1L521.1 313.1Z" fill="#114668" stroke="#114668"></path><path d="M411.3 204.6L378.9 209.8L373.9 279.9Z" fill="#0f6b99" stroke="#0f6b99"></path><path d="M505.1 405.4L547.4 370.2L503.1 365.2Z" fill="#0a75a6" stroke="#0a75a6"></path><path d="M454.7 401.4L505.1 405.4L503.1 365.2Z" fill="#0c2d45" stroke="#0c2d45"></path><path d="M356.9 157.5L378.9 198.6L411.3 204.6Z" fill="#09253a" stroke="#09253a"></path><path d="M411.3 204.6L378.9 198.6L378.9 209.8Z" fill="#0a75a6" stroke="#0a75a6"></path><path d="M378.9 209.8L335.6 221.8L373.9 279.9Z" fill="#125880" stroke="#125880"></path><path d="M567.4 290.9L552.4 208.8L523.1 225.8Z" fill="#09253a" stroke="#09253a"></path><path d="M501.1 148.5L472.7 166.6L516.1 203.6Z" fill="#103d5c" stroke="#103d5c"></path><path d="M516.1 203.6L472.7 166.6L473.7 234.8Z" fill="#071d2f" stroke="#071d2f"></path><path d="M597.8 319.1L595.8 292.9L567.4 290.9Z" fill="#124f74" stroke="#124f74"></path><path d="M567.4 290.9L572.4 205.6L552.4 208.8Z" fill="#0c2d45" stroke="#0c2d45"></path><path d="M597.8 319.1L567.4 290.9L565.4 329.1Z" fill="#09253a" stroke="#09253a"></path><path d="M370.9 356.2L411.3 420.4L417.3 356.2Z" fill="#0a75a6" stroke="#0a75a6"></path><path d="M454.7 401.4L465.7 441.5L505.1 405.4Z" fill="#124f74" stroke="#124f74"></path><path d="M594.8 359.2L597.8 319.1L565.4 329.1Z" fill="#09253a" stroke="#09253a"></path><path d="M595.8 292.9L572.4 205.6L567.4 290.9Z" fill="#0f6b99" stroke="#0f6b99"></path><path d="M552.4 208.8L501.1 148.5L516.1 203.6Z" fill="#103d5c" stroke="#103d5c"></path><path d="M378.9 198.6L335.6 221.8L378.9 209.8Z" fill="#071d2f" stroke="#071d2f"></path><path d="M373.9 279.9L314.6 338.1L370.9 356.2Z" fill="#125880" stroke="#125880"></path><path d="M571.4 117.5L501.1 148.5L552.4 208.8Z" fill="#0e3550" stroke="#0e3550"></path><path d="M434.3 116.5L356.9 157.5L411.3 204.6Z" fill="#124f74" stroke="#124f74"></path><path d="M411.3 420.4L465.7 441.5L454.7 401.4Z" fill="#09253a" stroke="#09253a"></path><path d="M571.4 428.4L594.8 359.2L547.4 370.2Z" fill="#0a75a6" stroke="#0a75a6"></path><path d="M547.4 370.2L594.8 359.2L565.4 329.1Z" fill="#103d5c" stroke="#103d5c"></path><path d="M571.4 428.4L547.4 370.2L505.1 405.4Z" fill="#0a75a6" stroke="#0a75a6"></path><path d="M335.6 221.8L310.6 269.9L373.9 279.9Z" fill="#0c2d45" stroke="#0c2d45"></path><path d="M370.9 356.2L376.9 429.4L411.3 420.4Z" fill="#0e3550" stroke="#0e3550"></path><path d="M310.6 269.9L314.6 338.1L373.9 279.9Z" fill="#103d5c" stroke="#103d5c"></path><path d="M335.6 221.8L305.2 256.9L310.6 269.9Z" fill="#0c2d45" stroke="#0c2d45"></path><path d="M310.6 269.9L277.2 320.1L314.6 338.1Z" fill="#0f6b99" stroke="#0f6b99"></path><path d="M314.6 423.4L376.9 429.4L370.9 356.2Z" fill="#0f6b99" stroke="#0f6b99"></path><path d="M411.3 420.4L431.3 470.5L465.7 441.5Z" fill="#0a75a6" stroke="#0a75a6"></path><path d="M277.2 320.1L313.6 358.2L314.6 338.1Z" fill="#0a75a6" stroke="#0a75a6"></path><path d="M314.6 338.1L313.6 358.2L370.9 356.2Z" fill="#124f74" stroke="#124f74"></path><path d="M532.1 74.3L479.7 129.5L501.1 148.5Z" fill="#0c2d45" stroke="#0c2d45"></path><path d="M501.1 148.5L479.7 129.5L472.7 166.6Z" fill="#071d2f" stroke="#071d2f"></path><path d="M378.9 198.6L347.6 162.6L335.6 221.8Z" fill="#103d5c" stroke="#103d5c"></path><path d="M494.7 527.7L516.1 448.5L465.7 441.5Z" fill="#09253a" stroke="#09253a"></path><path d="M465.7 441.5L516.1 448.5L505.1 405.4Z" fill="#11628d" stroke="#11628d"></path><path d="M434.3 116.5L411.3 204.6L472.7 166.6Z" fill="#0a75a6" stroke="#0a75a6"></path><path d="M335.6 221.8L284.2 245.8L305.2 256.9Z" fill="#0e3550" stroke="#0e3550"></path><path d="M356.9 157.5L347.6 162.6L378.9 198.6Z" fill="#0a75a6" stroke="#0a75a6"></path><path d="M516.1 448.5L571.4 428.4L505.1 405.4Z" fill="#071d2f" stroke="#071d2f"></path><path d="M479.7 129.5L434.3 116.5L472.7 166.6Z" fill="#09253a" stroke="#09253a"></path><path d="M632.8 228.8L608.8 191.6L572.4 205.6Z" fill="#124f74" stroke="#124f74"></path><path d="M572.4 205.6L571.4 117.5L552.4 208.8Z" fill="#071d2f" stroke="#071d2f"></path><path d="M632.8 228.8L572.4 205.6L595.8 292.9Z" fill="#11628d" stroke="#11628d"></path><path d="M632.8 228.8L595.8 292.9L648.2 271.9Z" fill="#071d2f" stroke="#071d2f"></path><path d="M381.9 480.5L431.3 470.5L411.3 420.4Z" fill="#0c2d45" stroke="#0c2d45"></path><path d="M281.2 170.6L284.2 245.8L335.6 221.8Z" fill="#114668" stroke="#114668"></path><path d="M305.2 256.9L284.2 245.8L310.6 269.9Z" fill="#124f74" stroke="#124f74"></path><path d="M648.2 271.9L595.8 292.9L664.2 308.1Z" fill="#09253a" stroke="#09253a"></path><path d="M284.2 245.8L277.2 320.1L310.6 269.9Z" fill="#0c2d45" stroke="#0c2d45"></path><path d="M313.6 358.2L314.6 423.4L370.9 356.2Z" fill="#103d5c" stroke="#103d5c"></path><path d="M664.2 308.1L597.8 319.1L594.8 359.2Z" fill="#114668" stroke="#114668"></path><path d="M664.2 308.1L595.8 292.9L597.8 319.1Z" fill="#0f6b99" stroke="#0f6b99"></path><path d="M272.2 379.2L314.6 423.4L313.6 358.2Z" fill="#09253a" stroke="#09253a"></path><path d="M381.9 480.5L417.3 485.7L431.3 470.5Z" fill="#0c2d45" stroke="#0c2d45"></path><path d="M381.9 480.5L411.3 420.4L376.9 429.4Z" fill="#124f74" stroke="#124f74"></path><path d="M525.1 527.7L551.4 490.7L516.1 448.5Z" fill="#11628d" stroke="#11628d"></path><path d="M516.1 448.5L584.4 461.5L571.4 428.4Z" fill="#11628d" stroke="#11628d"></path><path d="M571.4 428.4L629.8 405.4L594.8 359.2Z" fill="#11628d" stroke="#11628d"></path><path d="M340.6 467.5L381.9 480.5L376.9 429.4Z" fill="#11628d" stroke="#11628d"></path><path d="M642.2 395.4L664.2 308.1L594.8 359.2Z" fill="#071d2f" stroke="#071d2f"></path><path d="M661.2 184.6L608.8 191.6L632.8 228.8Z" fill="#0c2d45" stroke="#0c2d45"></path><path d="M613.8 133.5L571.4 117.5L608.8 191.6Z" fill="#125880" stroke="#125880"></path><path d="M608.8 191.6L571.4 117.5L572.4 205.6Z" fill="#0f6b99" stroke="#0f6b99"></path><path d="M472.7 73.3L421.3 84.3L434.3 116.5Z" fill="#09253a" stroke="#09253a"></path><path d="M277.2 320.1L272.2 379.2L313.6 358.2Z" fill="#103d5c" stroke="#103d5c"></path><path d="M629.8 405.4L642.2 395.4L594.8 359.2Z" fill="#0c2d45" stroke="#0c2d45"></path><path d="M571.4 428.4L584.4 461.5L629.8 405.4Z" fill="#0c2d45" stroke="#0c2d45"></path><path d="M699.5 395.4L682.2 382.2L642.2 395.4Z" fill="#125880" stroke="#125880"></path><path d="M551.4 490.7L584.4 461.5L516.1 448.5Z" fill="#09253a" stroke="#09253a"></path><path d="M472.7 73.3L434.3 116.5L479.7 129.5Z" fill="#125880" stroke="#125880"></path><path d="M434.3 116.5L381.9 89.3L356.9 157.5Z" fill="#09253a" stroke="#09253a"></path><path d="M310.6 123.5L281.2 170.6L347.6 162.6Z" fill="#11628d" stroke="#11628d"></path><path d="M326.6 512.7L340.6 467.5L278.2 487.7Z" fill="#0e3550" stroke="#0e3550"></path><path d="M314.6 423.4L340.6 467.5L376.9 429.4Z" fill="#124f74" stroke="#124f74"></path><path d="M340.6 467.5L373.9 488.7L381.9 480.5Z" fill="#09253a" stroke="#09253a"></path><path d="M381.9 480.5L373.9 488.7L417.3 485.7Z" fill="#0c2d45" stroke="#0c2d45"></path><path d="M339.6 108.3L347.6 162.6L356.9 157.5Z" fill="#11628d" stroke="#11628d"></path><path d="M347.6 162.6L281.2 170.6L335.6 221.8Z" fill="#103d5c" stroke="#103d5c"></path><path d="M233.8 312.1L253.8 372.2L277.2 320.1Z" fill="#0a75a6" stroke="#0a75a6"></path><path d="M253.8 372.2L266.2 394.4L272.2 379.2Z" fill="#124f74" stroke="#124f74"></path><path d="M421.3 84.3L381.9 89.3L434.3 116.5Z" fill="#0a75a6" stroke="#0a75a6"></path><path d="M494.7 527.7L431.3 470.5L482.7 533.8Z" fill="#0e3550" stroke="#0e3550"></path><path d="M494.7 527.7L465.7 441.5L431.3 470.5Z" fill="#125880" stroke="#125880"></path><path d="M532.1 74.3L472.7 73.3L479.7 129.5Z" fill="#103d5c" stroke="#103d5c"></path><path d="M421.3 84.3L399.9 64.2L381.9 89.3Z" fill="#0f6b99" stroke="#0f6b99"></path><path d="M253.8 372.2L272.2 379.2L277.2 320.1Z" fill="#114668" stroke="#114668"></path><path d="M272.2 379.2L266.2 394.4L314.6 423.4Z" fill="#09253a" stroke="#09253a"></path><path d="M381.9 89.3L339.6 108.3L356.9 157.5Z" fill="#0c2d45" stroke="#0c2d45"></path><path d="M661.2 184.6L632.8 228.8L682.2 225.8Z" fill="#11628d" stroke="#11628d"></path><path d="M645.2 141.5L613.8 133.5L608.8 191.6Z" fill="#0e3550" stroke="#0e3550"></path><path d="M571.4 117.5L550.4 84.3L501.1 148.5Z" fill="#11628d" stroke="#11628d"></path><path d="M236.8 270.9L277.2 320.1L284.2 245.8Z" fill="#0a75a6" stroke="#0a75a6"></path><path d="M224.8 242.8L236.8 270.9L284.2 245.8Z" fill="#071d2f" stroke="#071d2f"></path><path d="M339.6 108.3L310.6 123.5L347.6 162.6Z" fill="#0a75a6" stroke="#0a75a6"></path><path d="M594.8 106.3L550.4 84.3L571.4 117.5Z" fill="#071d2f" stroke="#071d2f"></path><path d="M236.8 270.9L233.8 312.1L277.2 320.1Z" fill="#09253a" stroke="#09253a"></path><path d="M682.2 225.8L632.8 228.8L648.2 271.9Z" fill="#071d2f" stroke="#071d2f"></path><path d="M550.4 84.3L532.1 74.3L501.1 148.5Z" fill="#103d5c" stroke="#103d5c"></path><path d="M632.8 66.2L594.8 106.3L613.8 133.5Z" fill="#09253a" stroke="#09253a"></path><path d="M613.8 133.5L594.8 106.3L571.4 117.5Z" fill="#09253a" stroke="#09253a"></path><path d="M550.4 41.2L506.1 49.2L532.1 74.3Z" fill="#114668" stroke="#114668"></path><path d="M712.5 293.9L682.2 225.8L648.2 271.9Z" fill="#125880" stroke="#125880"></path><path d="M310.6 123.5L268.2 158.5L281.2 170.6Z" fill="#11628d" stroke="#11628d"></path><path d="M221.8 194.6L224.8 242.8L284.2 245.8Z" fill="#071d2f" stroke="#071d2f"></path><path d="M443.3 54.2L399.9 64.2L421.3 84.3Z" fill="#103d5c" stroke="#103d5c"></path><path d="M351.6 32.2L303.2 74.3L339.6 108.3Z" fill="#071d2f" stroke="#071d2f"></path><path d="M339.6 108.3L303.2 74.3L310.6 123.5Z" fill="#0a75a6" stroke="#0a75a6"></path><path d="M443.3 54.2L421.3 84.3L472.7 73.3Z" fill="#0c2d45" stroke="#0c2d45"></path><path d="M482.7 533.8L431.3 470.5L417.3 485.7Z" fill="#124f74" stroke="#124f74"></path><path d="M661.2 184.6L645.2 141.5L608.8 191.6Z" fill="#124f74" stroke="#124f74"></path><path d="M709.5 139.5L645.2 141.5L661.2 184.6Z" fill="#0c2d45" stroke="#0c2d45"></path><path d="M458.7 40.2L443.3 54.2L472.7 73.3Z" fill="#114668" stroke="#114668"></path><path d="M645.2 451.5L629.8 405.4L584.4 461.5Z" fill="#0a75a6" stroke="#0a75a6"></path><path d="M645.2 451.5L642.2 395.4L629.8 405.4Z" fill="#103d5c" stroke="#103d5c"></path><path d="M642.2 395.4L682.2 382.2L664.2 308.1Z" fill="#0e3550" stroke="#0e3550"></path><path d="M664.2 308.1L712.5 293.9L648.2 271.9Z" fill="#11628d" stroke="#11628d"></path><path d="M221.8 194.6L284.2 245.8L281.2 170.6Z" fill="#071d2f" stroke="#071d2f"></path><path d="M236.8 270.9L209.5 308.1L233.8 312.1Z" fill="#125880" stroke="#125880"></path><path d="M425.3 558.8L482.7 533.8L417.3 485.7Z" fill="#11628d" stroke="#11628d"></path><path d="M628.8 472.5L584.4 461.5L627.8 491.7Z" fill="#0e3550" stroke="#0e3550"></path><path d="M628.8 472.5L645.2 451.5L584.4 461.5Z" fill="#0f6b99" stroke="#0f6b99"></path><path d="M525.1 527.7L516.1 448.5L494.7 527.7Z" fill="#114668" stroke="#114668"></path><path d="M510.1 563.8L525.1 527.7L494.7 527.7Z" fill="#114668" stroke="#114668"></path><path d="M627.8 491.7L584.4 461.5L551.4 490.7Z" fill="#071d2f" stroke="#071d2f"></path><path d="M550.4 41.2L532.1 74.3L550.4 84.3Z" fill="#0e3550" stroke="#0e3550"></path><path d="M532.1 74.3L506.1 49.2L472.7 73.3Z" fill="#11628d" stroke="#11628d"></path><path d="M181.5 287.9L209.5 308.1L236.8 270.9Z" fill="#11628d" stroke="#11628d"></path><path d="M233.8 312.1L180.5 354.2L253.8 372.2Z" fill="#0e3550" stroke="#0e3550"></path><path d="M224.8 419.4L265.2 471.5L266.2 394.4Z" fill="#071d2f" stroke="#071d2f"></path><path d="M506.1 49.2L458.7 40.2L472.7 73.3Z" fill="#071d2f" stroke="#071d2f"></path><path d="M443.3 54.2L433.3 0L399.9 64.2Z" fill="#0f6b99" stroke="#0f6b99"></path><path d="M715.5 308.1L712.5 293.9L664.2 308.1Z" fill="#114668" stroke="#114668"></path><path d="M682.2 225.8L712.5 198.6L661.2 184.6Z" fill="#0a75a6" stroke="#0a75a6"></path><path d="M234.8 105.3L246.8 156.5L268.2 158.5Z" fill="#0e3550" stroke="#0e3550"></path><path d="M268.2 158.5L246.8 156.5L281.2 170.6Z" fill="#0f6b99" stroke="#0f6b99"></path><path d="M234.8 105.3L268.2 158.5L310.6 123.5Z" fill="#0e3550" stroke="#0e3550"></path><path d="M716.5 354.2L715.5 308.1L664.2 308.1Z" fill="#071d2f" stroke="#071d2f"></path><path d="M246.8 156.5L221.8 194.6L281.2 170.6Z" fill="#11628d" stroke="#11628d"></path><path d="M224.8 242.8L181.5 287.9L236.8 270.9Z" fill="#09253a" stroke="#09253a"></path><path d="M340.6 467.5L326.6 512.7L373.9 488.7Z" fill="#11628d" stroke="#11628d"></path><path d="M373.9 488.7L425.3 558.8L417.3 485.7Z" fill="#09253a" stroke="#09253a"></path><path d="M278.2 487.7L340.6 467.5L314.6 423.4Z" fill="#071d2f" stroke="#071d2f"></path><path d="M265.2 471.5L314.6 423.4L266.2 394.4Z" fill="#125880" stroke="#125880"></path><path d="M624.8 550.8L627.8 491.7L551.4 490.7Z" fill="#0e3550" stroke="#0e3550"></path><path d="M628.8 472.5L675.2 514.7L645.2 451.5Z" fill="#0f6b99" stroke="#0f6b99"></path><path d="M645.2 451.5L699.5 395.4L642.2 395.4Z" fill="#0c2d45" stroke="#0c2d45"></path><path d="M710.5 444.5L699.5 395.4L645.2 451.5Z" fill="#0c2d45" stroke="#0c2d45"></path><path d="M682.2 382.2L716.5 354.2L664.2 308.1Z" fill="#0a75a6" stroke="#0a75a6"></path><path d="M699.5 395.4L716.5 354.2L682.2 382.2Z" fill="#0c2d45" stroke="#0c2d45"></path><path d="M746.9 244.8L712.5 293.9L773.9 292.9Z" fill="#11628d" stroke="#11628d"></path><path d="M746.9 244.8L715.5 221.8L712.5 293.9Z" fill="#09253a" stroke="#09253a"></path><path d="M712.5 293.9L715.5 221.8L682.2 225.8Z" fill="#09253a" stroke="#09253a"></path><path d="M224.8 419.4L266.2 394.4L253.8 372.2Z" fill="#09253a" stroke="#09253a"></path><path d="M632.8 66.2L550.4 41.2L594.8 106.3Z" fill="#071d2f" stroke="#071d2f"></path><path d="M594.8 106.3L550.4 41.2L550.4 84.3Z" fill="#09253a" stroke="#09253a"></path><path d="M490.7 0L433.3 0L458.7 40.2Z" fill="#071d2f" stroke="#071d2f"></path><path d="M265.2 471.5L278.2 487.7L314.6 423.4Z" fill="#09253a" stroke="#09253a"></path><path d="M180.5 354.2L224.8 419.4L253.8 372.2Z" fill="#11628d" stroke="#11628d"></path><path d="M351.6 32.2L381.9 89.3L399.9 64.2Z" fill="#0a75a6" stroke="#0a75a6"></path><path d="M351.6 32.2L339.6 108.3L381.9 89.3Z" fill="#09253a" stroke="#09253a"></path><path d="M356.9 550.8L425.3 558.8L373.9 488.7Z" fill="#125880" stroke="#125880"></path><path d="M482.7 533.8L510.1 563.8L494.7 527.7Z" fill="#125880" stroke="#125880"></path><path d="M715.5 221.8L712.5 198.6L682.2 225.8Z" fill="#09253a" stroke="#09253a"></path><path d="M645.2 141.5L632.8 66.2L613.8 133.5Z" fill="#11628d" stroke="#11628d"></path><path d="M481.7 600L510.1 563.8L482.7 533.8Z" fill="#103d5c" stroke="#103d5c"></path><path d="M525.1 527.7L585.4 571.8L551.4 490.7Z" fill="#0e3550" stroke="#0e3550"></path><path d="M345.6 546.8L356.9 550.8L373.9 488.7Z" fill="#071d2f" stroke="#071d2f"></path><path d="M345.6 546.8L373.9 488.7L326.6 512.7Z" fill="#11628d" stroke="#11628d"></path><path d="M179.5 217.8L181.5 287.9L224.8 242.8Z" fill="#0f6b99" stroke="#0f6b99"></path><path d="M209.5 308.1L180.5 354.2L233.8 312.1Z" fill="#103d5c" stroke="#103d5c"></path><path d="M286.2 563.8L345.6 546.8L326.6 512.7Z" fill="#125880" stroke="#125880"></path><path d="M359.9 0L351.6 32.2L399.9 64.2Z" fill="#11628d" stroke="#11628d"></path><path d="M433.3 0L443.3 54.2L458.7 40.2Z" fill="#124f74" stroke="#124f74"></path><path d="M676.2 94.3L632.8 66.2L645.2 141.5Z" fill="#11628d" stroke="#11628d"></path><path d="M181.5 287.9L180.5 354.2L209.5 308.1Z" fill="#09253a" stroke="#09253a"></path><path d="M246.8 156.5L193.5 182.6L221.8 194.6Z" fill="#09253a" stroke="#09253a"></path><path d="M221.8 194.6L179.5 217.8L224.8 242.8Z" fill="#103d5c" stroke="#103d5c"></path><path d="M186.5 144.5L193.5 182.6L246.8 156.5Z" fill="#0a75a6" stroke="#0a75a6"></path><path d="M173.5 462.5L236.8 475.5L224.8 419.4Z" fill="#0a75a6" stroke="#0a75a6"></path><path d="M224.8 419.4L236.8 475.5L265.2 471.5Z" fill="#11628d" stroke="#11628d"></path><path d="M265.2 471.5L236.8 475.5L278.2 487.7Z" fill="#114668" stroke="#114668"></path><path d="M278.2 487.7L286.2 563.8L326.6 512.7Z" fill="#0f6b99" stroke="#0f6b99"></path><path d="M193.5 182.6L179.5 217.8L221.8 194.6Z" fill="#103d5c" stroke="#103d5c"></path><path d="M181.5 287.9L145.1 307.1L180.5 354.2Z" fill="#124f74" stroke="#124f74"></path><path d="M715.5 221.8L744.9 195.6L712.5 198.6Z" fill="#125880" stroke="#125880"></path><path d="M712.5 198.6L709.5 139.5L661.2 184.6Z" fill="#124f74" stroke="#124f74"></path><path d="M773.9 292.9L712.5 293.9L715.5 308.1Z" fill="#0c2d45" stroke="#0c2d45"></path><path d="M744.9 195.6L709.5 139.5L712.5 198.6Z" fill="#103d5c" stroke="#103d5c"></path><path d="M275.2 65.2L234.8 105.3L310.6 123.5Z" fill="#125880" stroke="#125880"></path><path d="M275.2 65.2L310.6 123.5L303.2 74.3Z" fill="#125880" stroke="#125880"></path><path d="M333.6 0L275.2 65.2L303.2 74.3Z" fill="#0c2d45" stroke="#0c2d45"></path><path d="M709.5 139.5L676.2 94.3L645.2 141.5Z" fill="#125880" stroke="#125880"></path><path d="M675.2 514.7L628.8 472.5L627.8 491.7Z" fill="#114668" stroke="#114668"></path><path d="M675.2 514.7L710.5 444.5L645.2 451.5Z" fill="#103d5c" stroke="#103d5c"></path><path d="M775.9 387.2L761.9 339.1L716.5 354.2Z" fill="#071d2f" stroke="#071d2f"></path><path d="M716.5 354.2L761.9 339.1L715.5 308.1Z" fill="#11628d" stroke="#11628d"></path><path d="M490.7 0L506.1 49.2L524.1 0Z" fill="#0f6b99" stroke="#0f6b99"></path><path d="M490.7 0L458.7 40.2L506.1 49.2Z" fill="#11628d" stroke="#11628d"></path><path d="M524.1 0L506.1 49.2L550.4 41.2Z" fill="#103d5c" stroke="#103d5c"></path><path d="M558.4 0L524.1 0L550.4 41.2Z" fill="#0e3550" stroke="#0e3550"></path><path d="M746.9 244.8L744.9 195.6L715.5 221.8Z" fill="#0a75a6" stroke="#0a75a6"></path><path d="M766.9 398.4L716.5 354.2L699.5 395.4Z" fill="#124f74" stroke="#124f74"></path><path d="M746.9 244.8L796.3 200.6L744.9 195.6Z" fill="#0a75a6" stroke="#0a75a6"></path><path d="M530.1 600L585.4 571.8L510.1 563.8Z" fill="#114668" stroke="#114668"></path><path d="M510.1 563.8L585.4 571.8L525.1 527.7Z" fill="#11628d" stroke="#11628d"></path><path d="M585.4 571.8L624.8 550.8L551.4 490.7Z" fill="#0f6b99" stroke="#0f6b99"></path><path d="M635.8 0L558.4 0L550.4 41.2Z" fill="#0c2d45" stroke="#0c2d45"></path><path d="M635.8 0L550.4 41.2L632.8 66.2Z" fill="#0a75a6" stroke="#0a75a6"></path><path d="M418.3 600L481.7 600L425.3 558.8Z" fill="#0e3550" stroke="#0e3550"></path><path d="M425.3 558.8L481.7 600L482.7 533.8Z" fill="#0a75a6" stroke="#0a75a6"></path><path d="M418.3 600L425.3 558.8L384.9 600Z" fill="#09253a" stroke="#09253a"></path><path d="M433.3 0L359.9 0L399.9 64.2Z" fill="#0c2d45" stroke="#0c2d45"></path><path d="M351.6 32.2L333.6 0L303.2 74.3Z" fill="#11628d" stroke="#11628d"></path><path d="M658.2 546.8L675.2 514.7L627.8 491.7Z" fill="#071d2f" stroke="#071d2f"></path><path d="M384.9 600L356.9 550.8L341.6 600Z" fill="#071d2f" stroke="#071d2f"></path><path d="M384.9 600L425.3 558.8L356.9 550.8Z" fill="#0a75a6" stroke="#0a75a6"></path><path d="M203.5 103.3L186.5 144.5L234.8 105.3Z" fill="#0f6b99" stroke="#0f6b99"></path><path d="M234.8 105.3L186.5 144.5L246.8 156.5Z" fill="#114668" stroke="#114668"></path><path d="M193.5 182.6L148.1 186.6L179.5 217.8Z" fill="#0a75a6" stroke="#0a75a6"></path><path d="M726.5 53.2L662.2 55.2L676.2 94.3Z" fill="#114668" stroke="#114668"></path><path d="M676.2 94.3L662.2 55.2L632.8 66.2Z" fill="#0e3550" stroke="#0e3550"></path><path d="M718.5 106.3L676.2 94.3L709.5 139.5Z" fill="#124f74" stroke="#124f74"></path><path d="M761.9 339.1L773.9 292.9L715.5 308.1Z" fill="#11628d" stroke="#11628d"></path><path d="M139.1 281.9L145.1 307.1L181.5 287.9Z" fill="#103d5c" stroke="#103d5c"></path><path d="M180.5 354.2L170.5 424.4L224.8 419.4Z" fill="#114668" stroke="#114668"></path><path d="M139.1 281.9L181.5 287.9L131.1 245.8Z" fill="#0f6b99" stroke="#0f6b99"></path><path d="M481.7 600L530.1 600L510.1 563.8Z" fill="#09253a" stroke="#09253a"></path><path d="M341.6 600L356.9 550.8L345.6 546.8Z" fill="#071d2f" stroke="#071d2f"></path><path d="M749.9 108.3L718.5 106.3L709.5 139.5Z" fill="#11628d" stroke="#11628d"></path><path d="M749.9 108.3L709.5 139.5L778.9 121.5Z" fill="#103d5c" stroke="#103d5c"></path><path d="M359.9 0L333.6 0L351.6 32.2Z" fill="#0e3550" stroke="#0e3550"></path><path d="M250.8 30.2L203.5 103.3L234.8 105.3Z" fill="#09253a" stroke="#09253a"></path><path d="M122.1 384.2L170.5 424.4L180.5 354.2Z" fill="#0f6b99" stroke="#0f6b99"></path><path d="M216.8 512.7L286.2 563.8L278.2 487.7Z" fill="#103d5c" stroke="#103d5c"></path><path d="M250.8 30.2L234.8 105.3L275.2 65.2Z" fill="#071d2f" stroke="#071d2f"></path><path d="M131.1 245.8L181.5 287.9L179.5 217.8Z" fill="#103d5c" stroke="#103d5c"></path><path d="M139.1 449.5L173.5 462.5L170.5 424.4Z" fill="#09253a" stroke="#09253a"></path><path d="M624.8 550.8L658.2 546.8L627.8 491.7Z" fill="#124f74" stroke="#124f74"></path><path d="M643.2 600L658.2 546.8L624.8 550.8Z" fill="#09253a" stroke="#09253a"></path><path d="M631.8 600L624.8 550.8L585.4 571.8Z" fill="#0c2d45" stroke="#0c2d45"></path><path d="M216.8 512.7L278.2 487.7L236.8 475.5Z" fill="#09253a" stroke="#09253a"></path><path d="M710.5 444.5L766.9 398.4L699.5 395.4Z" fill="#125880" stroke="#125880"></path><path d="M761.9 339.1L784.3 312.1L773.9 292.9Z" fill="#09253a" stroke="#09253a"></path><path d="M784.3 446.5L766.9 398.4L710.5 444.5Z" fill="#11628d" stroke="#11628d"></path><path d="M688.5 524.7L710.5 444.5L675.2 514.7Z" fill="#11628d" stroke="#11628d"></path><path d="M814.3 356.2L784.3 312.1L761.9 339.1Z" fill="#103d5c" stroke="#103d5c"></path><path d="M773.9 292.9L794.3 287.9L746.9 244.8Z" fill="#125880" stroke="#125880"></path><path d="M658.2 546.8L688.5 524.7L675.2 514.7Z" fill="#0a75a6" stroke="#0a75a6"></path><path d="M530.1 600L568.4 600L585.4 571.8Z" fill="#114668" stroke="#114668"></path><path d="M183.5 490.7L216.8 512.7L236.8 475.5Z" fill="#071d2f" stroke="#071d2f"></path><path d="M148.1 136.5L148.1 186.6L186.5 144.5Z" fill="#103d5c" stroke="#103d5c"></path><path d="M186.5 144.5L148.1 186.6L193.5 182.6Z" fill="#0e3550" stroke="#0e3550"></path><path d="M818.3 434.4L775.9 387.2L766.9 398.4Z" fill="#114668" stroke="#114668"></path><path d="M766.9 398.4L775.9 387.2L716.5 354.2Z" fill="#0e3550" stroke="#0e3550"></path><path d="M286.2 563.8L341.6 600L345.6 546.8Z" fill="#0c2d45" stroke="#0c2d45"></path><path d="M148.1 186.6L131.1 245.8L179.5 217.8Z" fill="#0f6b99" stroke="#0f6b99"></path><path d="M122.1 384.2L180.5 354.2L145.1 307.1Z" fill="#103d5c" stroke="#103d5c"></path><path d="M122.1 384.2L145.1 307.1L100.7 301.1Z" fill="#071d2f" stroke="#071d2f"></path><path d="M170.5 424.4L173.5 462.5L224.8 419.4Z" fill="#0a75a6" stroke="#0a75a6"></path><path d="M857.6 330.1L794.3 287.9L784.3 312.1Z" fill="#114668" stroke="#114668"></path><path d="M784.3 312.1L794.3 287.9L773.9 292.9Z" fill="#0a75a6" stroke="#0a75a6"></path><path d="M265.2 0L250.8 30.2L275.2 65.2Z" fill="#11628d" stroke="#11628d"></path><path d="M203.5 103.3L148.1 136.5L186.5 144.5Z" fill="#125880" stroke="#125880"></path><path d="M173.5 462.5L183.5 490.7L236.8 475.5Z" fill="#124f74" stroke="#124f74"></path><path d="M221.8 567.8L272.2 600L286.2 563.8Z" fill="#0c2d45" stroke="#0c2d45"></path><path d="M662.2 55.2L635.8 0L632.8 66.2Z" fill="#0f6b99" stroke="#0f6b99"></path><path d="M662.2 0L635.8 0L662.2 55.2Z" fill="#0e3550" stroke="#0e3550"></path><path d="M778.9 121.5L709.5 139.5L744.9 195.6Z" fill="#0a75a6" stroke="#0a75a6"></path><path d="M718.5 0L662.2 0L662.2 55.2Z" fill="#0f6b99" stroke="#0f6b99"></path><path d="M806.3 235.8L796.3 200.6L746.9 244.8Z" fill="#11628d" stroke="#11628d"></path><path d="M151.1 71.3L148.1 136.5L203.5 103.3Z" fill="#103d5c" stroke="#103d5c"></path><path d="M78.7 194.6L79.7 244.8L131.1 245.8Z" fill="#0c2d45" stroke="#0c2d45"></path><path d="M100.7 301.1L145.1 307.1L139.1 281.9Z" fill="#0e3550" stroke="#0e3550"></path><path d="M173.5 462.5L123.1 502.7L183.5 490.7Z" fill="#09253a" stroke="#09253a"></path><path d="M794.3 287.9L806.3 235.8L746.9 244.8Z" fill="#103d5c" stroke="#103d5c"></path><path d="M857.6 277.9L806.3 235.8L794.3 287.9Z" fill="#071d2f" stroke="#071d2f"></path><path d="M333.6 0L265.2 0L275.2 65.2Z" fill="#09253a" stroke="#09253a"></path><path d="M250.8 30.2L189.5 33.2L203.5 103.3Z" fill="#125880" stroke="#125880"></path><path d="M568.4 600L631.8 600L585.4 571.8Z" fill="#11628d" stroke="#11628d"></path><path d="M725.5 568.8L738.9 551.8L688.5 524.7Z" fill="#0a75a6" stroke="#0a75a6"></path><path d="M726.5 53.2L676.2 94.3L718.5 106.3Z" fill="#09253a" stroke="#09253a"></path><path d="M122.1 421.4L139.1 449.5L170.5 424.4Z" fill="#125880" stroke="#125880"></path><path d="M762.9 58.2L726.5 53.2L749.9 108.3Z" fill="#071d2f" stroke="#071d2f"></path><path d="M749.9 108.3L726.5 53.2L718.5 106.3Z" fill="#0e3550" stroke="#0e3550"></path><path d="M631.8 600L643.2 600L624.8 550.8Z" fill="#103d5c" stroke="#103d5c"></path><path d="M776.9 468.5L784.3 446.5L710.5 444.5Z" fill="#11628d" stroke="#11628d"></path><path d="M737.9 522.7L710.5 444.5L688.5 524.7Z" fill="#103d5c" stroke="#103d5c"></path><path d="M775.9 387.2L814.3 356.2L761.9 339.1Z" fill="#11628d" stroke="#11628d"></path><path d="M87.7 255.9L100.7 301.1L139.1 281.9Z" fill="#0a75a6" stroke="#0a75a6"></path><path d="M87.7 255.9L139.1 281.9L131.1 245.8Z" fill="#114668" stroke="#114668"></path><path d="M849.6 388.2L814.3 356.2L849.6 394.4Z" fill="#0f6b99" stroke="#0f6b99"></path><path d="M221.8 567.8L286.2 563.8L216.8 512.7Z" fill="#0f6b99" stroke="#0f6b99"></path><path d="M286.2 563.8L272.2 600L341.6 600Z" fill="#0e3550" stroke="#0e3550"></path><path d="M221.8 567.8L216.8 512.7L210.5 560.8Z" fill="#103d5c" stroke="#103d5c"></path><path d="M738.9 551.8L737.9 522.7L688.5 524.7Z" fill="#124f74" stroke="#124f74"></path><path d="M783.3 120.5L778.9 121.5L796.3 200.6Z" fill="#124f74" stroke="#124f74"></path><path d="M796.3 200.6L778.9 121.5L744.9 195.6Z" fill="#11628d" stroke="#11628d"></path><path d="M122.1 384.2L122.1 421.4L170.5 424.4Z" fill="#11628d" stroke="#11628d"></path><path d="M79.7 395.4L122.1 421.4L122.1 384.2Z" fill="#0e3550" stroke="#0e3550"></path><path d="M737.9 522.7L776.9 468.5L710.5 444.5Z" fill="#0c2d45" stroke="#0c2d45"></path><path d="M210.5 560.8L216.8 512.7L183.5 490.7Z" fill="#09253a" stroke="#09253a"></path><path d="M795.3 89.3L783.3 120.5L841.6 136.5Z" fill="#0a75a6" stroke="#0a75a6"></path><path d="M778.9 121.5L795.3 89.3L749.9 108.3Z" fill="#11628d" stroke="#11628d"></path><path d="M132.1 572.8L210.5 560.8L183.5 490.7Z" fill="#114668" stroke="#114668"></path><path d="M221.8 567.8L220.8 600L272.2 600Z" fill="#0a75a6" stroke="#0a75a6"></path><path d="M94.7 88.3L111.7 156.5L148.1 136.5Z" fill="#125880" stroke="#125880"></path><path d="M148.1 136.5L111.7 156.5L148.1 186.6Z" fill="#0a75a6" stroke="#0a75a6"></path><path d="M79.7 244.8L87.7 255.9L131.1 245.8Z" fill="#071d2f" stroke="#071d2f"></path><path d="M100.7 301.1L73.7 365.2L122.1 384.2Z" fill="#114668" stroke="#114668"></path><path d="M223.8 0L189.5 33.2L250.8 30.2Z" fill="#0c2d45" stroke="#0c2d45"></path><path d="M265.2 0L223.8 0L250.8 30.2Z" fill="#0a75a6" stroke="#0a75a6"></path><path d="M153.1 67.2L151.1 71.3L203.5 103.3Z" fill="#125880" stroke="#125880"></path><path d="M189.5 33.2L153.1 67.2L203.5 103.3Z" fill="#124f74" stroke="#124f74"></path><path d="M147.1 0L153.1 67.2L189.5 33.2Z" fill="#124f74" stroke="#124f74"></path><path d="M725.5 568.8L688.5 524.7L658.2 546.8Z" fill="#071d2f" stroke="#071d2f"></path><path d="M737.9 522.7L786.3 528.7L776.9 468.5Z" fill="#114668" stroke="#114668"></path><path d="M795.3 89.3L762.9 58.2L749.9 108.3Z" fill="#0e3550" stroke="#0e3550"></path><path d="M726.5 53.2L718.5 0L662.2 55.2Z" fill="#124f74" stroke="#124f74"></path><path d="M705.5 600L725.5 568.8L658.2 546.8Z" fill="#0f6b99" stroke="#0f6b99"></path><path d="M78.7 194.6L131.1 245.8L148.1 186.6Z" fill="#125880" stroke="#125880"></path><path d="M62.4 352.2L73.7 365.2L100.7 301.1Z" fill="#09253a" stroke="#09253a"></path><path d="M776.9 468.5L818.3 434.4L784.3 446.5Z" fill="#125880" stroke="#125880"></path><path d="M784.3 446.5L818.3 434.4L766.9 398.4Z" fill="#0c2d45" stroke="#0c2d45"></path><path d="M858.6 472.5L818.3 434.4L776.9 468.5Z" fill="#114668" stroke="#114668"></path><path d="M181.5 600L220.8 600L210.5 560.8Z" fill="#0f6b99" stroke="#0f6b99"></path><path d="M210.5 560.8L220.8 600L221.8 567.8Z" fill="#125880" stroke="#125880"></path><path d="M123.1 502.7L173.5 462.5L139.1 449.5Z" fill="#11628d" stroke="#11628d"></path><path d="M743.9 0L718.5 0L726.5 53.2Z" fill="#09253a" stroke="#09253a"></path><path d="M783.3 120.5L795.3 89.3L778.9 121.5Z" fill="#114668" stroke="#114668"></path><path d="M762.9 58.2L743.9 0L726.5 53.2Z" fill="#125880" stroke="#125880"></path><path d="M841.6 136.5L783.3 120.5L796.3 200.6Z" fill="#0a75a6" stroke="#0a75a6"></path><path d="M62.4 352.2L100.7 301.1L54.4 337.1Z" fill="#125880" stroke="#125880"></path><path d="M76.7 466.5L123.1 502.7L139.1 449.5Z" fill="#071d2f" stroke="#071d2f"></path><path d="M806.3 600L786.3 528.7L738.9 551.8Z" fill="#0c2d45" stroke="#0c2d45"></path><path d="M643.2 600L705.5 600L658.2 546.8Z" fill="#0f6b99" stroke="#0f6b99"></path><path d="M111.7 156.5L78.7 194.6L148.1 186.6Z" fill="#124f74" stroke="#124f74"></path><path d="M54.4 337.1L100.7 301.1L43.4 287.9Z" fill="#103d5c" stroke="#103d5c"></path><path d="M61.4 173.6L78.7 194.6L111.7 156.5Z" fill="#09253a" stroke="#09253a"></path><path d="M61.4 173.6L111.7 156.5L60.4 148.5Z" fill="#0c2d45" stroke="#0c2d45"></path><path d="M73.7 365.2L79.7 395.4L122.1 384.2Z" fill="#11628d" stroke="#11628d"></path><path d="M76.7 466.5L139.1 449.5L122.1 421.4Z" fill="#124f74" stroke="#124f74"></path><path d="M857.6 330.1L784.3 312.1L814.3 356.2Z" fill="#124f74" stroke="#124f74"></path><path d="M857.6 330.1L857.6 277.9L794.3 287.9Z" fill="#0a75a6" stroke="#0a75a6"></path><path d="M806.3 235.8L844.6 179.6L796.3 200.6Z" fill="#11628d" stroke="#11628d"></path><path d="M849.6 388.2L857.6 330.1L814.3 356.2Z" fill="#124f74" stroke="#124f74"></path><path d="M859.6 234.8L844.6 179.6L806.3 235.8Z" fill="#103d5c" stroke="#103d5c"></path><path d="M849.6 394.4L775.9 387.2L818.3 434.4Z" fill="#09253a" stroke="#09253a"></path><path d="M849.6 394.4L814.3 356.2L775.9 387.2Z" fill="#0e3550" stroke="#0e3550"></path><path d="M73.7 365.2L62.4 352.2L79.7 395.4Z" fill="#0e3550" stroke="#0e3550"></path><path d="M100.7 301.1L87.7 255.9L43.4 287.9Z" fill="#103d5c" stroke="#103d5c"></path><path d="M858.6 472.5L849.6 394.4L818.3 434.4Z" fill="#125880" stroke="#125880"></path><path d="M900 336.1L900 274.9L857.6 330.1Z" fill="#0c2d45" stroke="#0c2d45"></path><path d="M786.3 528.7L737.9 522.7L738.9 551.8Z" fill="#0f6b99" stroke="#0f6b99"></path><path d="M744.9 600L738.9 551.8L725.5 568.8Z" fill="#114668" stroke="#114668"></path><path d="M857.6 277.9L859.6 234.8L806.3 235.8Z" fill="#114668" stroke="#114668"></path><path d="M900 274.9L859.6 234.8L857.6 277.9Z" fill="#0f6b99" stroke="#0f6b99"></path><path d="M801.3 44.2L743.9 0L762.9 58.2Z" fill="#114668" stroke="#114668"></path><path d="M43.4 287.9L87.7 255.9L79.7 244.8Z" fill="#0c2d45" stroke="#0c2d45"></path><path d="M0 426.4L67.4 427.4L79.7 395.4Z" fill="#09253a" stroke="#09253a"></path><path d="M79.7 395.4L67.4 427.4L122.1 421.4Z" fill="#0f6b99" stroke="#0f6b99"></path><path d="M223.8 0L172.5 0L189.5 33.2Z" fill="#0a75a6" stroke="#0a75a6"></path><path d="M85.7 47.2L94.7 88.3L151.1 71.3Z" fill="#0c2d45" stroke="#0c2d45"></path><path d="M854.6 97.3L841.6 136.5L900 118.5Z" fill="#11628d" stroke="#11628d"></path><path d="M844.6 179.6L841.6 136.5L796.3 200.6Z" fill="#114668" stroke="#114668"></path><path d="M795.3 89.3L801.3 44.2L762.9 58.2Z" fill="#071d2f" stroke="#071d2f"></path><path d="M132.1 572.8L181.5 600L210.5 560.8Z" fill="#0e3550" stroke="#0e3550"></path><path d="M0 426.4L79.7 395.4L62.4 352.2Z" fill="#071d2f" stroke="#071d2f"></path><path d="M123.1 502.7L132.1 572.8L183.5 490.7Z" fill="#11628d" stroke="#11628d"></path><path d="M94.7 88.3L148.1 136.5L151.1 71.3Z" fill="#09253a" stroke="#09253a"></path><path d="M78.7 194.6L31.4 211.8L79.7 244.8Z" fill="#124f74" stroke="#124f74"></path><path d="M31.4 211.8L43.4 287.9L79.7 244.8Z" fill="#125880" stroke="#125880"></path><path d="M0 464.5L66.4 474.5L67.4 427.4Z" fill="#0f6b99" stroke="#0f6b99"></path><path d="M85.7 47.2L151.1 71.3L153.1 67.2Z" fill="#124f74" stroke="#124f74"></path><path d="M705.5 600L744.9 600L725.5 568.8Z" fill="#114668" stroke="#114668"></path><path d="M67.4 427.4L76.7 466.5L122.1 421.4Z" fill="#09253a" stroke="#09253a"></path><path d="M854.6 97.3L801.3 44.2L795.3 89.3Z" fill="#0c2d45" stroke="#0c2d45"></path><path d="M94.7 88.3L60.4 148.5L111.7 156.5Z" fill="#11628d" stroke="#11628d"></path><path d="M61.4 173.6L31.4 211.8L78.7 194.6Z" fill="#0f6b99" stroke="#0f6b99"></path><path d="M76.7 466.5L92.7 506.7L123.1 502.7Z" fill="#11628d" stroke="#11628d"></path><path d="M172.5 0L147.1 0L189.5 33.2Z" fill="#0e3550" stroke="#0e3550"></path><path d="M806.3 600L811.3 537.8L786.3 528.7Z" fill="#0c2d45" stroke="#0c2d45"></path><path d="M786.3 528.7L811.3 537.8L776.9 468.5Z" fill="#071d2f" stroke="#071d2f"></path><path d="M93.7 539.8L132.1 572.8L123.1 502.7Z" fill="#071d2f" stroke="#071d2f"></path><path d="M76.7 466.5L66.4 474.5L92.7 506.7Z" fill="#0c2d45" stroke="#0c2d45"></path><path d="M92.7 506.7L93.7 539.8L123.1 502.7Z" fill="#125880" stroke="#125880"></path><path d="M67.4 427.4L66.4 474.5L76.7 466.5Z" fill="#124f74" stroke="#124f74"></path><path d="M0 350.2L62.4 352.2L54.4 337.1Z" fill="#0a75a6" stroke="#0a75a6"></path><path d="M0 167.6L31.4 211.8L61.4 173.6Z" fill="#103d5c" stroke="#103d5c"></path><path d="M43.4 287.9L0 335.1L54.4 337.1Z" fill="#11628d" stroke="#11628d"></path><path d="M811.3 537.8L858.6 472.5L776.9 468.5Z" fill="#125880" stroke="#125880"></path><path d="M900 336.1L857.6 330.1L900 361.2Z" fill="#103d5c" stroke="#103d5c"></path><path d="M857.6 330.1L900 274.9L857.6 277.9Z" fill="#11628d" stroke="#11628d"></path><path d="M900 176.6L841.6 136.5L844.6 179.6Z" fill="#071d2f" stroke="#071d2f"></path><path d="M841.6 136.5L854.6 97.3L795.3 89.3Z" fill="#114668" stroke="#114668"></path><path d="M857.6 330.1L849.6 388.2L900 361.2Z" fill="#09253a" stroke="#09253a"></path><path d="M859.6 234.8L900 221.8L844.6 179.6Z" fill="#0f6b99" stroke="#0f6b99"></path><path d="M900 361.2L849.6 388.2L849.6 394.4Z" fill="#0c2d45" stroke="#0c2d45"></path><path d="M51.4 536.8L93.7 539.8L92.7 506.7Z" fill="#124f74" stroke="#124f74"></path><path d="M94.7 88.3L60.4 102.3L60.4 148.5Z" fill="#125880" stroke="#125880"></path><path d="M0 167.6L0 222.8L31.4 211.8Z" fill="#11628d" stroke="#11628d"></path><path d="M66.4 59.2L60.4 102.3L94.7 88.3Z" fill="#071d2f" stroke="#071d2f"></path><path d="M900 429.4L900 361.2L849.6 394.4Z" fill="#071d2f" stroke="#071d2f"></path><path d="M900 274.9L900 221.8L859.6 234.8Z" fill="#125880" stroke="#125880"></path><path d="M147.1 0L85.7 47.2L153.1 67.2Z" fill="#114668" stroke="#114668"></path><path d="M132.1 572.8L135.1 600L181.5 600Z" fill="#0a75a6" stroke="#0a75a6"></path><path d="M86.7 600L135.1 600L132.1 572.8Z" fill="#071d2f" stroke="#071d2f"></path><path d="M806.3 600L833.6 546.8L811.3 537.8Z" fill="#09253a" stroke="#09253a"></path><path d="M811.3 537.8L833.6 546.8L858.6 472.5Z" fill="#09253a" stroke="#09253a"></path><path d="M858.6 472.5L900 429.4L849.6 394.4Z" fill="#09253a" stroke="#09253a"></path><path d="M833.6 546.8L871.6 485.7L858.6 472.5Z" fill="#0a75a6" stroke="#0a75a6"></path><path d="M900 221.8L900 176.6L844.6 179.6Z" fill="#0f6b99" stroke="#0f6b99"></path><path d="M74.7 0L66.4 59.2L85.7 47.2Z" fill="#0c2d45" stroke="#0c2d45"></path><path d="M85.7 47.2L66.4 59.2L94.7 88.3Z" fill="#0a75a6" stroke="#0a75a6"></path><path d="M0 222.8L0 269.9L31.4 211.8Z" fill="#0f6b99" stroke="#0f6b99"></path><path d="M860.6 36.2L813.3 0L801.3 44.2Z" fill="#0c2d45" stroke="#0c2d45"></path><path d="M801.3 44.2L813.3 0L743.9 0Z" fill="#071d2f" stroke="#071d2f"></path><path d="M860.6 36.2L801.3 44.2L854.6 97.3Z" fill="#114668" stroke="#114668"></path><path d="M900 449.5L900 429.4L858.6 472.5Z" fill="#09253a" stroke="#09253a"></path><path d="M61.4 173.6L60.4 148.5L0 167.6Z" fill="#071d2f" stroke="#071d2f"></path><path d="M31.4 211.8L0 269.9L43.4 287.9Z" fill="#125880" stroke="#125880"></path><path d="M0 269.9L0 335.1L43.4 287.9Z" fill="#0a75a6" stroke="#0a75a6"></path><path d="M41.4 528.7L51.4 536.8L92.7 506.7Z" fill="#0f6b99" stroke="#0f6b99"></path><path d="M744.9 600L806.3 600L738.9 551.8Z" fill="#0a75a6" stroke="#0a75a6"></path><path d="M900 494.7L900 449.5L871.6 485.7Z" fill="#125880" stroke="#125880"></path><path d="M0 335.1L0 350.2L54.4 337.1Z" fill="#0f6b99" stroke="#0f6b99"></path><path d="M0 167.6L60.4 148.5L0 127.5Z" fill="#103d5c" stroke="#103d5c"></path><path d="M900 494.7L871.6 485.7L833.6 546.8Z" fill="#11628d" stroke="#11628d"></path><path d="M871.6 485.7L900 449.5L858.6 472.5Z" fill="#11628d" stroke="#11628d"></path><path d="M900 176.6L900 118.5L841.6 136.5Z" fill="#114668" stroke="#114668"></path><path d="M900 49.2L860.6 36.2L854.6 97.3Z" fill="#0f6b99" stroke="#0f6b99"></path><path d="M41.4 528.7L92.7 506.7L66.4 474.5Z" fill="#11628d" stroke="#11628d"></path><path d="M93.7 539.8L86.7 600L132.1 572.8Z" fill="#071d2f" stroke="#071d2f"></path><path d="M0 127.5L60.4 148.5L60.4 102.3Z" fill="#071d2f" stroke="#071d2f"></path><path d="M0 350.2L0 426.4L62.4 352.2Z" fill="#114668" stroke="#114668"></path><path d="M900 118.5L900 99.3L854.6 97.3Z" fill="#0e3550" stroke="#0e3550"></path><path d="M0 501.7L41.4 528.7L66.4 474.5Z" fill="#11628d" stroke="#11628d"></path><path d="M147.1 0L74.7 0L85.7 47.2Z" fill="#0c2d45" stroke="#0c2d45"></path><path d="M0 81.3L0 127.5L60.4 102.3Z" fill="#11628d" stroke="#11628d"></path><path d="M60.4 600L93.7 539.8L51.4 536.8Z" fill="#103d5c" stroke="#103d5c"></path><path d="M60.4 600L86.7 600L93.7 539.8Z" fill="#11628d" stroke="#11628d"></path><path d="M900 572.8L900 494.7L833.6 546.8Z" fill="#114668" stroke="#114668"></path><path d="M0 81.3L60.4 102.3L66.4 59.2Z" fill="#0f6b99" stroke="#0f6b99"></path><path d="M806.3 600L841.6 600L833.6 546.8Z" fill="#09253a" stroke="#09253a"></path><path d="M0 426.4L0 464.5L67.4 427.4Z" fill="#11628d" stroke="#11628d"></path><path d="M0 600L60.4 600L51.4 536.8Z" fill="#125880" stroke="#125880"></path><path d="M900 0L857.6 0L860.6 36.2Z" fill="#0f6b99" stroke="#0f6b99"></path><path d="M860.6 36.2L857.6 0L813.3 0Z" fill="#0e3550" stroke="#0e3550"></path><path d="M900 99.3L900 49.2L854.6 97.3Z" fill="#09253a" stroke="#09253a"></path><path d="M0 541.8L51.4 536.8L41.4 528.7Z" fill="#0a75a6" stroke="#0a75a6"></path><path d="M0 464.5L0 501.7L66.4 474.5Z" fill="#071d2f" stroke="#071d2f"></path><path d="M0 59.2L0 81.3L66.4 59.2Z" fill="#11628d" stroke="#11628d"></path><path d="M33.4 0L0 59.2L66.4 59.2Z" fill="#09253a" stroke="#09253a"></path><path d="M74.7 0L33.4 0L66.4 59.2Z" fill="#0a75a6" stroke="#0a75a6"></path><path d="M841.6 600L900 572.8L833.6 546.8Z" fill="#114668" stroke="#114668"></path><path d="M0 501.7L0 541.8L41.4 528.7Z" fill="#125880" stroke="#125880"></path><path d="M900 49.2L900 0L860.6 36.2Z" fill="#0a75a6" stroke="#0a75a6"></path><path d="M841.6 600L900 600L900 572.8Z" fill="#0c2d45" stroke="#0c2d45"></path><path d="M33.4 0L0 0L0 59.2Z" fill="#0e3550" stroke="#0e3550"></path><path d="M0 541.8L0 600L51.4 536.8Z" fill="#125880" stroke="#125880"></path></g></svg>