<svg id="visual" viewBox="0 0 900 600" width="900" height="600" xmlns="http://www.w3.org/2000/svg" xmlns:xlink="http://www.w3.org/1999/xlink" version="1.1"><path d="M0 43L10.7 41C21.3 39 42.7 35 64.2 36C85.7 37 107.3 43 128.8 41C150.3 39 171.7 29 193 27C214.3 25 235.7 31 257 36C278.3 41 299.7 45 321.2 47C342.7 49 364.3 49 385.8 45C407.3 41 428.7 33 450 30C471.3 27 492.7 29 514.2 28C535.7 27 557.3 23 578.8 23C600.3 23 621.7 27 643 32C664.3 37 685.7 43 707 46C728.3 49 749.7 49 771.2 44C792.7 39 814.3 29 835.8 25C857.3 21 878.7 23 889.3 24L900 25L900 0L889.3 0C878.7 0 857.3 0 835.8 0C814.3 0 792.7 0 771.2 0C749.7 0 728.3 0 707 0C685.7 0 664.3 0 643 0C621.7 0 600.3 0 578.8 0C557.3 0 535.7 0 514.2 0C492.7 0 471.3 0 450 0C428.7 0 407.3 0 385.8 0C364.3 0 342.7 0 321.2 0C299.7 0 278.3 0 257 0C235.7 0 214.3 0 193 0C171.7 0 150.3 0 128.8 0C107.3 0 85.7 0 64.2 0C42.7 0 21.3 0 10.7 0L0 0Z" fill="#4576d9"></path><path d="M0 127L10.7 125C21.3 123 42.7 119 64.2 110C85.7 101 107.3 87 128.8 85C150.3 83 171.7 93 193 101C214.3 109 235.7 115 257 114C278.3 113 299.7 105 321.2 101C342.7 97 364.3 97 385.8 90C407.3 83 428.7 69 450 63C471.3 57 492.7 59 514.2 67C535.7 75 557.3 89 578.8 89C600.3 89 621.7 75 643 78C664.3 81 685.7 101 707 113C728.3 125 749.7 129 771.2 120C792.7 111 814.3 89 835.8 84C857.3 79 878.7 91 889.3 97L900 103L900 23L889.3 22C878.7 21 857.3 19 835.8 23C814.3 27 792.7 37 771.2 42C749.7 47 728.3 47 707 44C685.7 41 664.3 35 643 30C621.7 25 600.3 21 578.8 21C557.3 21 535.7 25 514.2 26C492.7 27 471.3 25 450 28C428.7 31 407.3 39 385.8 43C364.3 47 342.7 47 321.2 45C299.7 43 278.3 39 257 34C235.7 29 214.3 23 193 25C171.7 27 150.3 37 128.8 39C107.3 41 85.7 35 64.2 34C42.7 33 21.3 37 10.7 39L0 41Z" fill="#396cd3"></path><path d="M0 169L10.7 165C21.3 161 42.7 153 64.2 148C85.7 143 107.3 141 128.8 146C150.3 151 171.7 163 193 164C214.3 165 235.7 155 257 151C278.3 147 299.7 149 321.2 151C342.7 153 364.3 155 385.8 147C407.3 139 428.7 121 450 116C471.3 111 492.7 119 514.2 122C535.7 125 557.3 123 578.8 121C600.3 119 621.7 117 643 127C664.3 137 685.7 159 707 173C728.3 187 749.7 193 771.2 182C792.7 171 814.3 143 835.8 138C857.3 133 878.7 151 889.3 160L900 169L900 101L889.3 95C878.7 89 857.3 77 835.8 82C814.3 87 792.7 109 771.2 118C749.7 127 728.3 123 707 111C685.7 99 664.3 79 643 76C621.7 73 600.3 87 578.8 87C557.3 87 535.7 73 514.2 65C492.7 57 471.3 55 450 61C428.7 67 407.3 81 385.8 88C364.3 95 342.7 95 321.2 99C299.7 103 278.3 111 257 112C235.7 113 214.3 107 193 99C171.7 91 150.3 81 128.8 83C107.3 85 85.7 99 64.2 108C42.7 117 21.3 121 10.7 123L0 125Z" fill="#2b61cd"></path><path d="M0 217L10.7 221C21.3 225 42.7 233 64.2 229C85.7 225 107.3 209 128.8 218C150.3 227 171.7 261 193 266C214.3 271 235.7 247 257 242C278.3 237 299.7 251 321.2 259C342.7 267 364.3 269 385.8 253C407.3 237 428.7 203 450 188C471.3 173 492.7 177 514.2 184C535.7 191 557.3 201 578.8 207C600.3 213 621.7 215 643 223C664.3 231 685.7 245 707 250C728.3 255 749.7 251 771.2 245C792.7 239 814.3 231 835.8 228C857.3 225 878.7 227 889.3 228L900 229L900 167L889.3 158C878.7 149 857.3 131 835.8 136C814.3 141 792.7 169 771.2 180C749.7 191 728.3 185 707 171C685.7 157 664.3 135 643 125C621.7 115 600.3 117 578.8 119C557.3 121 535.7 123 514.2 120C492.7 117 471.3 109 450 114C428.7 119 407.3 137 385.8 145C364.3 153 342.7 151 321.2 149C299.7 147 278.3 145 257 149C235.7 153 214.3 163 193 162C171.7 161 150.3 149 128.8 144C107.3 139 85.7 141 64.2 146C42.7 151 21.3 159 10.7 163L0 167Z" fill="#1b57c7"></path><path d="M0 241L10.7 245C21.3 249 42.7 257 64.2 255C85.7 253 107.3 241 128.8 251C150.3 261 171.7 293 193 296C214.3 299 235.7 273 257 271C278.3 269 299.7 291 321.2 298C342.7 305 364.3 297 385.8 277C407.3 257 428.7 225 450 214C471.3 203 492.7 213 514.2 225C535.7 237 557.3 251 578.8 258C600.3 265 621.7 265 643 269C664.3 273 685.7 281 707 285C728.3 289 749.7 289 771.2 282C792.7 275 814.3 261 835.8 257C857.3 253 878.7 259 889.3 262L900 265L900 227L889.3 226C878.7 225 857.3 223 835.8 226C814.3 229 792.7 237 771.2 243C749.7 249 728.3 253 707 248C685.7 243 664.3 229 643 221C621.7 213 600.3 211 578.8 205C557.3 199 535.7 189 514.2 182C492.7 175 471.3 171 450 186C428.7 201 407.3 235 385.8 251C364.3 267 342.7 265 321.2 257C299.7 249 278.3 235 257 240C235.7 245 214.3 269 193 264C171.7 259 150.3 225 128.8 216C107.3 207 85.7 223 64.2 227C42.7 231 21.3 223 10.7 219L0 215Z" fill="#004dc1"></path><path d="M0 379L10.7 378C21.3 377 42.7 375 64.2 375C85.7 375 107.3 377 128.8 382C150.3 387 171.7 395 193 390C214.3 385 235.7 367 257 378C278.3 389 299.7 429 321.2 440C342.7 451 364.3 433 385.8 419C407.3 405 428.7 395 450 395C471.3 395 492.7 405 514.2 401C535.7 397 557.3 379 578.8 369C600.3 359 621.7 357 643 372C664.3 387 685.7 419 707 421C728.3 423 749.7 395 771.2 394C792.7 393 814.3 419 835.8 427C857.3 435 878.7 425 889.3 420L900 415L900 263L889.3 260C878.7 257 857.3 251 835.8 255C814.3 259 792.7 273 771.2 280C749.7 287 728.3 287 707 283C685.7 279 664.3 271 643 267C621.7 263 600.3 263 578.8 256C557.3 249 535.7 235 514.2 223C492.7 211 471.3 201 450 212C428.7 223 407.3 255 385.8 275C364.3 295 342.7 303 321.2 296C299.7 289 278.3 267 257 269C235.7 271 214.3 297 193 294C171.7 291 150.3 259 128.8 249C107.3 239 85.7 251 64.2 253C42.7 255 21.3 247 10.7 243L0 239Z" fill="#0048b4"></path><path d="M0 397L10.7 396C21.3 395 42.7 393 64.2 396C85.7 399 107.3 407 128.8 412C150.3 417 171.7 419 193 413C214.3 407 235.7 393 257 404C278.3 415 299.7 451 321.2 466C342.7 481 364.3 475 385.8 467C407.3 459 428.7 449 450 447C471.3 445 492.7 451 514.2 447C535.7 443 557.3 429 578.8 418C600.3 407 621.7 399 643 414C664.3 429 685.7 467 707 467C728.3 467 749.7 429 771.2 423C792.7 417 814.3 443 835.8 457C857.3 471 878.7 473 889.3 474L900 475L900 413L889.3 418C878.7 423 857.3 433 835.8 425C814.3 417 792.7 391 771.2 392C749.7 393 728.3 421 707 419C685.7 417 664.3 385 643 370C621.7 355 600.3 357 578.8 367C557.3 377 535.7 395 514.2 399C492.7 403 471.3 393 450 393C428.7 393 407.3 403 385.8 417C364.3 431 342.7 449 321.2 438C299.7 427 278.3 387 257 376C235.7 365 214.3 383 193 388C171.7 393 150.3 385 128.8 380C107.3 375 85.7 373 64.2 373C42.7 373 21.3 375 10.7 376L0 377Z" fill="#0043a7"></path><path d="M0 421L10.7 422C21.3 423 42.7 425 64.2 434C85.7 443 107.3 459 128.8 463C150.3 467 171.7 459 193 457C214.3 455 235.7 459 257 469C278.3 479 299.7 495 321.2 502C342.7 509 364.3 507 385.8 503C407.3 499 428.7 493 450 492C471.3 491 492.7 495 514.2 492C535.7 489 557.3 479 578.8 466C600.3 453 621.7 437 643 451C664.3 465 685.7 509 707 511C728.3 513 749.7 473 771.2 470C792.7 467 814.3 501 835.8 515C857.3 529 878.7 523 889.3 520L900 517L900 473L889.3 472C878.7 471 857.3 469 835.8 455C814.3 441 792.7 415 771.2 421C749.7 427 728.3 465 707 465C685.7 465 664.3 427 643 412C621.7 397 600.3 405 578.8 416C557.3 427 535.7 441 514.2 445C492.7 449 471.3 443 450 445C428.7 447 407.3 457 385.8 465C364.3 473 342.7 479 321.2 464C299.7 449 278.3 413 257 402C235.7 391 214.3 405 193 411C171.7 417 150.3 415 128.8 410C107.3 405 85.7 397 64.2 394C42.7 391 21.3 393 10.7 394L0 395Z" fill="#003f9b"></path><path d="M0 601L10.7 601C21.3 601 42.7 601 64.2 601C85.7 601 107.3 601 128.8 601C150.3 601 171.7 601 193 601C214.3 601 235.7 601 257 601C278.3 601 299.7 601 321.2 601C342.7 601 364.3 601 385.8 601C407.3 601 428.7 601 450 601C471.3 601 492.7 601 514.2 601C535.7 601 557.3 601 578.8 601C600.3 601 621.7 601 643 601C664.3 601 685.7 601 707 601C728.3 601 749.7 601 771.2 601C792.7 601 814.3 601 835.8 601C857.3 601 878.7 601 889.3 601L900 601L900 515L889.3 518C878.7 521 857.3 527 835.8 513C814.3 499 792.7 465 771.2 468C749.7 471 728.3 511 707 509C685.7 507 664.3 463 643 449C621.7 435 600.3 451 578.8 464C557.3 477 535.7 487 514.2 490C492.7 493 471.3 489 450 490C428.7 491 407.3 497 385.8 501C364.3 505 342.7 507 321.2 500C299.7 493 278.3 477 257 467C235.7 457 214.3 453 193 455C171.7 457 150.3 465 128.8 461C107.3 457 85.7 441 64.2 432C42.7 423 21.3 421 10.7 420L0 419Z" fill="#003a8e"></path></svg>